<?xml version="1.0" encoding="utf-8"?>
<!-- Generator: Adobe Illustrator 26.4.1, SVG Export Plug-In . SVG Version: 6.00 Build 0)  -->
<svg version="1.1" id="Layer_2_00000151517593279144432990000015268655422105464197_"
	 xmlns="http://www.w3.org/2000/svg" xmlns:xlink="http://www.w3.org/1999/xlink" x="0px" y="0px" viewBox="0 0 103 103"
	 style="enable-background:new 0 0 103 103;" xml:space="preserve">
<style type="text/css">
	.st0{fill:#00233D;}
</style>
<g id="icon-0">
	<g>
		<path class="st0" d="M41.5,34c-0.4-0.4-0.4-1.2,0-1.6c0.5-0.4,1.2-0.4,1.6,0l0.7,0.7c1-3.2,4.1-5.6,7.7-5.6c4.4,0,8,3.6,8,8
			s-3.6,8-8,8c-0.6,0-1.1-0.5-1.1-1.2s0.5-1.1,1.1-1.1c3.2,0,5.7-2.6,5.7-5.7s-2.6-5.7-5.7-5.7c-1.9,0-3.5,0.9-4.5,2.3
			c0.3,0,0.6,0.1,0.8,0.3c0.5,0.5,0.5,1.2,0,1.6l-2.3,2.3c-0.1,0.1-0.2,0.2-0.4,0.2s-0.3,0.1-0.4,0.1s-0.3,0-0.4-0.1
			c-0.1-0.1-0.3-0.1-0.4-0.2C43.8,36.3,41.5,34,41.5,34z"/>
		<path class="st0" d="M33.2,57.2h-4.6c-0.6,0-1.1,0.5-1.1,1.2s0.5,1.1,1.1,1.1h4.6c0.6,0,1.1-0.5,1.1-1.1S33.8,57.2,33.2,57.2z
			 M40.1,57.2h-2.3c-0.6,0-1.1,0.5-1.1,1.2s0.5,1.1,1.1,1.1h2.3c0.6,0,1.2-0.5,1.2-1.1S40.7,57.2,40.1,57.2z M51.5,57.2h-4.6
			c-0.6,0-1.1,0.5-1.1,1.2s0.5,1.1,1.1,1.1h4.6c0.6,0,1.1-0.5,1.1-1.1S52.1,57.2,51.5,57.2z M51.5,57.2h-4.6c-0.6,0-1.1,0.5-1.1,1.2
			s0.5,1.1,1.1,1.1h4.6c0.6,0,1.1-0.5,1.1-1.1S52.1,57.2,51.5,57.2z M40.1,57.2h-2.3c-0.6,0-1.1,0.5-1.1,1.2s0.5,1.1,1.1,1.1h2.3
			c0.6,0,1.2-0.5,1.2-1.1S40.7,57.2,40.1,57.2z M33.2,57.2h-4.6c-0.6,0-1.1,0.5-1.1,1.2s0.5,1.1,1.1,1.1h4.6c0.6,0,1.1-0.5,1.1-1.1
			S33.8,57.2,33.2,57.2z M72.1,0H30.9C13.8,0,0,13.8,0,30.9v41.2C0,89.2,13.8,103,30.9,103h41.2c17.1,0,30.9-13.8,30.9-30.9V30.9
			C103,13.8,89.2,0,72.1,0z M51.5,20.6c8.2,0,14.9,6.7,14.9,14.9s-6.7,14.9-14.9,14.9s-14.9-6.7-14.9-14.9S43.3,20.6,51.5,20.6z
			 M80.1,81.3c0,0.6-0.5,1.1-1.2,1.1H24c-0.6,0-1.1-0.5-1.1-1.1V69.8c0-0.6,0.5-1.1,1.1-1.1h55c0.6,0,1.2,0.5,1.2,1.1
			C80.1,69.8,80.1,81.3,80.1,81.3z M80.1,65.2c0,0.6-0.5,1.2-1.2,1.2H24c-0.6,0-1.1-0.5-1.1-1.2V53.8c0-0.6,0.5-1.2,1.1-1.2h55
			c0.6,0,1.2,0.5,1.2,1.2C80.1,53.8,80.1,65.2,80.1,65.2z M51.5,57.2h-4.6c-0.6,0-1.1,0.5-1.1,1.2s0.5,1.1,1.1,1.1h4.6
			c0.6,0,1.1-0.5,1.1-1.1S52.1,57.2,51.5,57.2z M51.5,73.3h-4.6c-0.6,0-1.1,0.5-1.1,1.1s0.5,1.1,1.1,1.1h4.6c0.6,0,1.1-0.5,1.1-1.1
			S52.1,73.3,51.5,73.3z M40.1,57.2h-2.3c-0.6,0-1.1,0.5-1.1,1.2s0.5,1.1,1.1,1.1h2.3c0.6,0,1.2-0.5,1.2-1.1S40.7,57.2,40.1,57.2z
			 M40.1,73.3h-2.3c-0.6,0-1.1,0.5-1.1,1.1s0.5,1.1,1.1,1.1h2.3c0.6,0,1.2-0.5,1.2-1.1S40.7,73.3,40.1,73.3z M33.2,57.2h-4.6
			c-0.6,0-1.1,0.5-1.1,1.2s0.5,1.1,1.1,1.1h4.6c0.6,0,1.1-0.5,1.1-1.1S33.8,57.2,33.2,57.2z M33.2,73.3h-4.6c-0.6,0-1.1,0.5-1.1,1.1
			s0.5,1.1,1.1,1.1h4.6c0.6,0,1.1-0.5,1.1-1.1S33.8,73.3,33.2,73.3z"/>
	</g>
</g>
</svg>
