<?xml version="1.0" encoding="utf-8"?>
<!-- Generator: Adobe Illustrator 26.4.1, SVG Export Plug-In . SVG Version: 6.00 Build 0)  -->
<svg version="1.1" id="Layer_2_00000151517593279144432990000015268655422105464197_"
	 xmlns="http://www.w3.org/2000/svg" xmlns:xlink="http://www.w3.org/1999/xlink" x="0px" y="0px" viewBox="0 0 731 103"
	 style="enable-background:new 0 0 731 103;" xml:space="preserve">
<style type="text/css">
	.st0{fill:#00233D;}
</style>
<g id="c-0">
	<g id="tight-bounds">
		<g>
			<g id="text-0">
				<path class="st0" d="M176,99.8h-13V37c0-11.1,2.7-19.8,8.2-26c5.5-6.2,13.3-9.2,23.4-9.2l0,0c10.2,0,18.1,2.5,23.5,7.4
					c5.5,5,8.2,12,8.2,21l0,0c0,5.8-1.4,10.5-4.1,14.2c-2.8,3.7-7.4,6.6-14.1,8.7l0,0v0.5c6.9,2.7,11.5,6.5,13.9,11.4
					c2.3,4.9,3.5,13.1,3.5,24.4l0,0v10.3h-13V82.1c0-7-2-12.4-5.9-16.4c-4-3.9-9.7-5.8-17.1-5.8H182V47.8h7.9
					c8.8,0,14.9-1.8,18.4-5.4c3.4-3.6,5.1-7.9,5.1-12.8l0,0c0-4.7-1.7-8.5-5-11.3c-3.4-2.9-7.8-4.3-13.3-4.3l0,0
					c-6.4,0-11.1,1.8-14.3,5.4c-3.2,3.6-4.8,9.5-4.8,17.7l0,0L176,99.8L176,99.8z M297.2,87.7v12.2h-54.9V26.2
					c0-6.8,2.2-12.3,6.5-16.4l0,0c2.9-2.8,6.3-4.6,9.9-5.4c3.7-0.8,8.2-1.2,13.5-1.2h25v12.1h-26.8c-10.1,0-15.2,4.2-15.2,12.7l0,0
					v15.7h31.9v12.2h-31.9v31.8L297.2,87.7L297.2,87.7z M336.5,3.2h25.3v12.1h-24.4c-9.3,0-13.9,3.8-13.9,11.3l0,0
					c0,4,2,7.5,6.1,10.3c4.1,2.8,9.6,5.5,16.6,8.1l0,0c3.1,1.2,5.8,2.4,8,3.6c2.2,1.2,4.4,2.9,6.6,4.9c2.2,2,3.9,4.6,5,7.8
					c1.1,3.2,1.7,6.8,1.7,11l0,0c0,4.6-1,8.7-2.9,12.3c-1.9,3.6-4.4,6.5-7.5,8.6c-3,2.1-6.1,3.6-9.3,4.7c-3.2,1.1-6.3,1.7-9.3,1.7
					l0,0c-1.3,0.1-3.1,0.1-5.5,0.1h-21.5V87.7h21.1c6.3,0,11.4-1.3,15.3-3.9c3.9-2.6,5.9-6.4,5.9-11.5l0,0c0-2.5-0.5-4.7-1.6-6.6
					c-1.1-1.9-2.7-3.5-4.8-4.9c-2.1-1.4-4.2-2.6-6.4-3.6c-2.1-1-4.8-2.1-7.8-3.2l0,0c-0.8-0.3-1.5-0.5-1.9-0.7l0,0
					c-14.5-5.5-21.7-14.5-21.7-27.1l0,0c0-7.7,2.5-13.5,7.5-17.3C322,5.1,328.5,3.2,336.5,3.2L336.5,3.2L336.5,3.2z M400.3,15.3
					h-23.9V3.2h60.7v12.1h-23.9v84.5h-13L400.3,15.3L400.3,15.3z M525.7,51.9L525.7,51.9c-0.1-5.2-0.8-10-2.3-14.6
					c-1.4-4.6-3.5-8.6-6.2-12.1c-2.7-3.4-6-6.2-9.9-8.2s-8.2-3-13.1-3l0,0c-4.9,0-9.2,1-13.1,3c-3.9,2-7.1,4.8-9.9,8.2
					c-2.7,3.5-4.8,7.5-6.2,12.1c-1.4,4.6-2.2,9.5-2.3,14.6l0,0c0.1,5.2,0.9,10.1,2.3,14.6c1.4,4.5,3.5,8.4,6.2,11.7
					c2.7,3.3,6,5.9,9.9,7.9s8.2,2.9,13.1,2.9l0,0c4.9,0,9.2-1,13.1-2.9c3.9-1.9,7.2-4.6,9.9-7.9c2.7-3.3,4.8-7.2,6.2-11.7
					C524.9,62,525.7,57.2,525.7,51.9z M448.8,51.9L448.8,51.9c0.1-7.6,1.2-14.5,3.5-20.7c2.2-6.2,5.3-11.4,9.2-15.8
					c4-4.4,8.7-7.7,14.2-10.1c5.5-2.3,11.7-3.5,18.5-3.5l0,0c6.7,0,12.9,1.2,18.4,3.5C518.3,7.7,523,11,527,15.4
					c4,4.4,7,9.6,9.2,15.8c2.2,6.2,3.4,13.1,3.5,20.7l0,0c-0.1,7.6-1.2,14.5-3.4,20.6c-2.2,6.1-5.2,11.2-9.2,15.5
					c-4,4.2-8.7,7.5-14.3,9.8c-5.6,2.3-11.8,3.4-18.6,3.4l0,0c-6.8,0-13-1.2-18.5-3.4c-5.6-2.3-10.3-5.6-14.3-9.8s-7-9.4-9.2-15.5
					C450.1,66.4,449,59.6,448.8,51.9L448.8,51.9z M569.9,99.8h-13V37c0-11.1,2.7-19.8,8.2-26c5.5-6.2,13.3-9.2,23.4-9.2l0,0
					c10.2,0,18.1,2.5,23.5,7.4c5.5,5,8.2,12,8.2,21l0,0c0,5.8-1.4,10.5-4.1,14.2s-7.5,6.6-14.1,8.7l0,0v0.5
					c6.9,2.7,11.5,6.5,13.9,11.4c2.4,4.9,3.5,13.1,3.5,24.4l0,0v10.3h-13V82.1c0-7-2-12.4-5.9-16.4c-4-3.9-9.7-5.8-17.1-5.8H576
					V47.8h7.9c8.8,0,15-1.8,18.4-5.4c3.4-3.6,5.1-7.9,5.1-12.8l0,0c0-4.7-1.7-8.5-5-11.3c-3.3-2.9-7.8-4.3-13.3-4.3l0,0
					c-6.3,0-11.1,1.8-14.3,5.4c-3.2,3.6-4.8,9.5-4.8,17.7l0,0L569.9,99.8L569.9,99.8z M649.8,3.2v96.6h-13V3.2H649.8z M665.7,4.8
					L665.7,4.8V3.2h13v1.7c0,18.4,6.5,31.3,19.5,38.8l0,0c7.3-4,12.4-9.3,15.3-15.7c2.9-6.4,4.3-14.1,4.3-23l0,0V3.2H731v2.9
					c0,19.1-7.1,33.5-21.3,43.2l0,0c14.2,9.9,21.3,24.3,21.3,43.2l0,0v7.3h-13.2v-6.1c0-8.9-1.4-16.6-4.3-23.1
					c-2.9-6.4-8-11.7-15.3-15.7l0,0c-13,7.5-19.5,20.4-19.5,38.8l0,0v6.1h-13v-6.1c0-19.7,7.1-34.5,21.3-44.5l0,0
					C672.8,39.6,665.7,24.7,665.7,4.8L665.7,4.8z"/>
			</g>
			<g id="icon-0">
				<g>
					<path class="st0" d="M41.5,34c-0.4-0.4-0.4-1.2,0-1.6c0.5-0.4,1.2-0.4,1.6,0l0.7,0.7c1-3.2,4.1-5.6,7.7-5.6c4.4,0,8,3.6,8,8
						s-3.6,8-8,8c-0.6,0-1.1-0.5-1.1-1.2s0.5-1.1,1.1-1.1c3.2,0,5.7-2.6,5.7-5.7s-2.6-5.7-5.7-5.7c-1.9,0-3.5,0.9-4.5,2.3
						c0.3,0,0.6,0.1,0.8,0.3c0.5,0.5,0.5,1.2,0,1.6l-2.3,2.3c-0.1,0.1-0.2,0.2-0.4,0.2s-0.3,0.1-0.4,0.1s-0.3,0-0.4-0.1
						c-0.1-0.1-0.3-0.1-0.4-0.2C43.8,36.3,41.5,34,41.5,34z"/>
					<path class="st0" d="M33.2,57.2h-4.6c-0.6,0-1.1,0.5-1.1,1.2s0.5,1.1,1.1,1.1h4.6c0.6,0,1.1-0.5,1.1-1.1S33.8,57.2,33.2,57.2z
						 M40.1,57.2h-2.3c-0.6,0-1.1,0.5-1.1,1.2s0.5,1.1,1.1,1.1h2.3c0.6,0,1.2-0.5,1.2-1.1S40.7,57.2,40.1,57.2z M51.5,57.2h-4.6
						c-0.6,0-1.1,0.5-1.1,1.2s0.5,1.1,1.1,1.1h4.6c0.6,0,1.1-0.5,1.1-1.1S52.1,57.2,51.5,57.2z M51.5,57.2h-4.6
						c-0.6,0-1.1,0.5-1.1,1.2s0.5,1.1,1.1,1.1h4.6c0.6,0,1.1-0.5,1.1-1.1S52.1,57.2,51.5,57.2z M40.1,57.2h-2.3
						c-0.6,0-1.1,0.5-1.1,1.2s0.5,1.1,1.1,1.1h2.3c0.6,0,1.2-0.5,1.2-1.1S40.7,57.2,40.1,57.2z M33.2,57.2h-4.6
						c-0.6,0-1.1,0.5-1.1,1.2s0.5,1.1,1.1,1.1h4.6c0.6,0,1.1-0.5,1.1-1.1S33.8,57.2,33.2,57.2z M72.1,0H30.9C13.8,0,0,13.8,0,30.9
						v41.2C0,89.2,13.8,103,30.9,103h41.2c17.1,0,30.9-13.8,30.9-30.9V30.9C103,13.8,89.2,0,72.1,0z M51.5,20.6
						c8.2,0,14.9,6.7,14.9,14.9s-6.7,14.9-14.9,14.9s-14.9-6.7-14.9-14.9S43.3,20.6,51.5,20.6z M80.1,81.3c0,0.6-0.5,1.1-1.2,1.1H24
						c-0.6,0-1.1-0.5-1.1-1.1V69.8c0-0.6,0.5-1.1,1.1-1.1H79c0.6,0,1.2,0.5,1.2,1.1C80.1,69.8,80.1,81.3,80.1,81.3z M80.1,65.2
						c0,0.6-0.5,1.2-1.2,1.2H24c-0.6,0-1.1-0.5-1.1-1.2V53.8c0-0.6,0.5-1.2,1.1-1.2H79c0.6,0,1.2,0.5,1.2,1.2
						C80.1,53.8,80.1,65.2,80.1,65.2z M51.5,57.2h-4.6c-0.6,0-1.1,0.5-1.1,1.2s0.5,1.1,1.1,1.1h4.6c0.6,0,1.1-0.5,1.1-1.1
						S52.1,57.2,51.5,57.2z M51.5,73.3h-4.6c-0.6,0-1.1,0.5-1.1,1.1s0.5,1.1,1.1,1.1h4.6c0.6,0,1.1-0.5,1.1-1.1S52.1,73.3,51.5,73.3
						z M40.1,57.2h-2.3c-0.6,0-1.1,0.5-1.1,1.2s0.5,1.1,1.1,1.1h2.3c0.6,0,1.2-0.5,1.2-1.1S40.7,57.2,40.1,57.2z M40.1,73.3h-2.3
						c-0.6,0-1.1,0.5-1.1,1.1s0.5,1.1,1.1,1.1h2.3c0.6,0,1.2-0.5,1.2-1.1S40.7,73.3,40.1,73.3z M33.2,57.2h-4.6
						c-0.6,0-1.1,0.5-1.1,1.2s0.5,1.1,1.1,1.1h4.6c0.6,0,1.1-0.5,1.1-1.1S33.8,57.2,33.2,57.2z M33.2,73.3h-4.6
						c-0.6,0-1.1,0.5-1.1,1.1s0.5,1.1,1.1,1.1h4.6c0.6,0,1.1-0.5,1.1-1.1S33.8,73.3,33.2,73.3z"/>
				</g>
			</g>
		</g>
	</g>
</g>
</svg>
